# xmcd
#
# Track frame offsets: 
#        150
#        15303
#        27308
#        42147
#        57632
#        74177
#        89089
#        107718
#        122757
#        139209
#        155675
#
# Disc length: 2283 seconds
#
# Revision: 0
# Processed by: cddbd v1.5.2PL0 Copyright (c) Steve Scherf et al.
# Submitted via: ExactAudioCopy v0.99pb5
#
DISCID=a108e90b
DTITLE=Jaska Mäkynen - Onnen aamu
DYEAR=1995
DGENRE=Trance
TTITLE0=Enemmän kuin ystäväksi
TTITLE1=Kotkan lailla liitäisin
TTITLE2=Vain kuu on nähnyt sen
TTITLE3=Samettisilmä
TTITLE4=Kyynel
TTITLE5=Kesätuulen tuoksu
TTITLE6=Kuin mies sua rakastan
TTITLE7=Rakkauden kutsu
TTITLE8=Lauantai-illan tango
TTITLE9=Tango naiselle
TTITLE10=Onnen aamu
EXTD=
EXTT0=
EXTT1=
EXTT2=
EXTT3=
EXTT4=
EXTT5=
EXTT6=
EXTT7=
EXTT8=
EXTT9=
EXTT10=
PLAYORDER=
